<svg xmlns="http://www.w3.org/2000/svg"><symbol viewBox="0 0 1080 1345" id="logo-intro"><title>logo-intro</title><g id="logo-intro-texte"><path d="M206.8 968.2c-18.4 19.2-28.2 53.2.9 81.7 25.6 24.8 61.3 21.3 84.4-2.4 23.9-24.9 20.7-57.2-3.3-80.1-29.4-28.5-65.4-16.2-82 .8zm72.1 72.2c-30 30.7-55 17.4-64.6 8.1-19.1-18.5-18.4-48.7 5.5-73.6 22.5-23.3 47.1-22 64.8-5 16.8 16.3 18.9 45.1-5.7 70.5z"/><path d="M446.6 1166.4c-.9-.2-2.9-1-5.3-2.4-3.2-1.9-8.7-5.5-13.3-16.1-4.9-11.6-9.9-27.4-15.9-46 16.8-6.9 24.8-15.7 28.6-25.9 3.5-9.6-.3-18.7-2.7-22.4-5.5-8.1-23-15.3-31.8-18.4l-32.2-11.9c-1.5-.5-2.4-.5-2.6.4-.2.4.3 1 .8 1 1.3.5 3.6 1.8 4.6 2.2 4.2 2.8 4.4 5.4 3.1 10.2-1.4 4.6-2.8 8.4-10.7 30.2l-9 24.4c-4.8 13.3-8.9 24.4-11.6 30.1-2.1 3.7-3.8 6.5-6.9 5.9-1.3-.1-6.1-1.4-7.3-2.1-.8-.1-1.4 0-1.5.7-.3.8.2 1.1 1.9 1.8l32.4 11.8c1.5.5 2.4.3 2.6-.3.3-.3 0-.9-.8-1.3-1.3-.3-3.3-1.4-5.2-2.3-4-2.3-5.2-5.3-3.7-9.2 2.6-7.2 32.4-88.6 32.4-88.6.3-1 .9-1.4 1.6-1.4 1.6 0 5.5 1.1 9.7 2.5 14.8 5.6 28.7 22.3 22.4 39.8-5 13.8-18.3 17.8-18.3 17.8l-7.7 2.6s5.4 19.7 8.5 29.5c4 13.1 6.6 21.8 11.4 27.2 2.8 3.2 6.1 4.9 13.9 7.9l9.8 3.6c2.5 1 3.4 1 3.7.3.1-.6-.3-1.2-.9-1.6z"/><path d="M142.9 557.1c9.4 3.9 18.6.5 22.5-2 8.2-5.2 16.1-22.4 19.6-31.1l12.8-31.5c.7-1.6.7-2.5-.3-2.7-.5-.2-1 .2-1.3.9-.5 1.1-1.4 3.3-2.2 4.4-2.8 4.2-5.4 4.4-10.3 2.7-4.4-1.5-8.2-3.1-29.6-11.7l-24.1-9.6c-13.2-5.4-24-9.8-29.5-12.8-3.8-2.1-6.5-3.9-6-7.1.3-1.2 1.9-6 2.3-7.2.3-.9.1-1.2-.3-1.5-.8-.2-1.4.3-2.1 1.9l-12.7 31.8c-.7 1.5-.5 2.6.2 2.7.3 0 .9 0 1.1-.8.6-1.1 1.8-3.4 2.8-5.2 2.2-3.7 5.1-4.9 9.3-3.3 7 2.8 87.4 35.4 87.4 35.4.8.2 1.2 1 1.2 1.9-.2 1.4-1.2 5.3-2.8 9.5-5.9 14.4-23.3 27.8-40.4 21-13.7-5.7-17.4-19-17.4-19l-2.2-7.8s-19.8 4.8-29.7 7.3c-13.3 3.7-22.1 5.8-27.6 10.4-3.4 3-5.5 6.1-8.6 13.8l-4 9.6c-1 2.5-1 3.5-.1 3.9.4 0 1-.3 1.2-1.1.4-.8 1.1-2.7 2.7-5.3 1.9-2.9 5.8-8.4 16.6-12.8 11.6-4.4 27.6-8.9 46.6-14.1 6.3 17.1 14.7 25.3 24.9 29.4z"/><path d="M61.9 728.9c-6.1-.8-9.1-2.5-10.9-6.3-1.6-3.7-1.8-10.2-1.9-14.1l-1.3-41.7 45.9-1.3c.7 0 1.1.2 1.1 1 0 2.5 1.4 37.4 1 41.4-.4 5.8-2.8 7.4-5 8-1.8.5-2.4.8-3.9.8-.8 0-1.5.4-1.5 1 .2 1 1.9 1 3 1l21.1-.5s1.6-.1 1.6-1c-.1-1.1-1.6-1.2-2-1.2-.5 0-4.7-.3-5.4-1.4-1.1-1.8-2-3.4-2.4-6.9-.4-3.4-1.2-39.6-1.2-41.4 0-.7.3-.9 1.4-1l43.6-1.2c.9-.2 1.4 0 1.6.8 0 1.8 1 42.3.8 44.7-.7 8-2.4 9.6-4.6 10.5-1.9 1-4.4 1.2-5.4 1.2-1.2 0-2 .3-2 1.2 0 .8.9.9 1.7 1.2 1.5 0 11.7 1 15.6 1.4.9 0 1.5-.5 1.5-1.8-.4-12.9-2.6-79.4-2.6-82.4-.1-1.6-.5-2.4-1.2-2.4-.8.1-.9.7-.9 1.2 0 1.4 0 3.9-.3 5-.9 5-3.2 6.2-8.3 6.7-4.7.4-8.8.4-31.9 1.2l-26.1.9c-14 .7-25.9.9-32 .3-4.3-.4-7.6-1.1-8.3-3.9-.4-1.4-.7-5.5-.9-6.9 0-.8-.4-1.1-.8-1.1-.9 0-1.2.8-1 2.3l2.5 78.4c.3 5.7-.4 6.4 3.4 7.3 3.1.7 14.7 1.5 15.9 1.5 1 0 2.3-.1 2.3-1.1 0-.8-.7-1-2.2-1.4z"/><path d="M188.4 844.8c5.6 11.5 7.1 23.3 5.4 29.7-1.3 5-5.6 9.8-10.7 12.4-1.9.8-2.7 1.3-2.2 2.3.4.9 1.3.7 3.4-.2 2-.9 20.4-8.5 21.3-9.3.9-.3 1.3-.8.7-2.1-1.7-4.5-3.1-9.2-4.6-14.8-2-6.9-5.2-14.4-7.7-19.8-10-20.1-22-29.1-33.9-33-17.4-6-34.2-1.5-43 2.8-12.6 6.1-26.1 16.6-31.3 34.9-4.3 15.1-2.7 30.7 7.1 50.5 4.2 8.3 10 18 14.8 22.1 2.1 1.9 2.6 2 5.3 1.8 5.3-1.1 17.4-5.3 18.4-5.5 1.1-.7 1.9-1.4 1.5-1.7-.3-1-1.1-1-2.6-.5-2.5.8-9.1 2-13.4.5-8-2.4-13-9.7-17.8-19.6-13.8-28.2-.2-59 24.8-71.2 13.4-6.5 26.2-10.1 40.2-4.9 6.5 2.4 15.7 7.9 24.3 25.6z"/><path d="M612.5 1070.3c-19.1-16.1-45.6-12-60-10.4l-36.1 3.7c-1.6.2-2.2.5-2.2 1.4 0 .5.6.9 1.2.5h4.9c5.1.8 6.4 2.7 7.2 7.7.8 4.7 9.2 84 9.1 90.1-.2 4.3-.5 7.5-3.3 8.4-1.4.4-5.1 1.2-6.6 1.3-.7 0-.9.7-.9.7 0 1.2.7 1.5 2.4 1.3 2.2-.3 42.5-4.4 48.8-5.3 24.8-2.4 36.7-14.1 42.4-21.2 7.2-9.4 13.3-24.4 11.5-42.8-1.9-17.3-10.1-28.5-18.4-35.4zm-2.3 77.5c-7.7 9.7-19.6 15.7-33.3 17.2 0 0-12.1 1.3-17.4 2-5.5.5-9.1.8-9.7-6.3l-9.6-90.4c-.2-1.6.1-2.4 1.4-3.2 1.1-.5 6.4-1.5 9.3-1.9 17.4-2 34.3-1.6 49.4 11.4 6.6 5.6 15.9 16.8 17.9 35.4 1.3 13.3-1.2 27.4-8 35.8z"/><path d="M740 1062.1h-6.5c-22 .2-29-4.8-33.1-11.9-5.4-9.2.6-20 12.5-26.9 15.9-9.2 23.6-6.4 25.4-5.8 1.9.9 4.8 3.6 5.9 5 .8 1.1 1.3 1.3 2.3.8 1-.3.7-1.5-.5-3.6-4.2-7.8-6.7-12.9-7.1-13.8-.4-.5-.9-.5-2.3.2s-2.8 1.4-6.3 2.7c-4.7 1.8-10 4.2-16.7 8.1-21.9 12.8-27.3 29.6-19.5 43 5.1 8.9 10.8 14.8 35.5 15l10.3.1c20.2.5 28 2.7 33 11.5 4.9 8.1 1.8 21.4-14.7 31.1-11.5 6.8-24.9 9.7-32.9 2-1.5-1.6-2.7-3.3-3.2-4.4-.6-1.1-1-1.4-2.1-.9-.8.5-.8 1.4-.2 2.8 1 2.1 3.8 7.7 6.8 14 1.9 3.7 2.6 3.7 5.5 3.3 8.4-1.6 16.8-5.3 24.9-9.8 9.2-5.5 17.7-12.2 22.9-20.4 8.3-13.1 3.5-23.3.7-28.4-5.9-10.2-13.6-13.7-40.6-13.7z"/><path d="M90 596.2c0 5.1 4.2 9.2 9.1 9.2 5 0 9-4 9-9.2 0-5-4-9-9-9s-9.1 4-9.1 9z"/><path d="M768.9 297.2c5 0 9.1-3.9 9.1-9.1 0-5-4.1-8.9-9.1-8.9-5.1 0-9.1 3.8-9.1 8.9.1 5.1 4.1 9.1 9.1 9.1z"/><path d="M312.8 296.1c5.1 0 9.1-4 9.1-9 0-4.9-4-9.2-9.1-9.2-4.9 0-8.9 4.3-8.9 9.2 0 4.9 4 9 8.9 9z"/><path d="M917.2 927.9c0-4.9-4-9.1-8.9-9.1-5.1 0-9.1 4.2-9.1 9.1 0 5 4 9 9.1 9 4.9 0 8.9-3.9 8.9-9z"/><path d="M102.9 761c-5 0-9 3.9-9 8.9 0 4.9 4 9.3 9 9.3s9-4.4 9-9.3c0-5-4-8.9-9-8.9z"/><path d="M179.4 929.6c-5 0-9 4-9 9 0 5.1 4 9.2 9 9.2 4.9 0 9.1-4 9.1-9.2 0-5-4.1-9-9.1-9z"/><path d="M326.2 1057.8c-5 0-9.1 3.9-9.1 9 0 4.9 4.2 8.9 9.1 8.9s9-3.9 9-8.9c.2-5-4-9-9-9z"/><path d="M475.8 1106.9c-5 0-9.1 4-9.1 9.2 0 5 4.1 9.2 9.1 9.2 4.9 0 9-4.2 9-9.2 0-5-4.1-9.2-9-9.2z"/><path d="M676.7 1090.8c-5 0-9 4.2-9 9.2 0 4.9 4 9 9 9s9.1-4 9.1-9-4.1-9.2-9.1-9.2z"/><path d="M352 211.2c1.2-.4 3.7-1 4.9-1.1 5-.9 8.5-1.5 10.7 4.9 1.6 4.6 3.5 8.2 11.5 30l9.2 24.7c4.8 13.3 8.3 24.6 10.4 30.7 2.9 8.1-1.6 8.6-4.3 10.4-1.5.5-2.8 1.5-3.9 1.7-.9.4-1.1 1.1-.9 1.2.3 1.1 1.1 1.1 2.6.5l33.7-12.6c1.4-.4 2.1-1 1.7-1.7-.2-.4-.6-.8-1.5-.7-1.2.7-4.3 1.4-6.5 2-4.4.9-6.3-2-8.3-5.7-2.9-5.7-6.9-16.8-11.8-30L378.2 208c-1.3-3.6 1.6-4.7 1.6-4.7l20.1-7.3c3.2-1.2 11.6-4.8 21.7-.2 10.2 5 14.1 14.2 15.7 18.8 4.9 12.8-2.1 26.7-15.7 31.8-2.8.9-3.7 1.5-3.2 2.4.2.9 1.1.9 1.9.4.7 0 2.3-.5 2.9-1.1 19.9-7.1 29.5-25.9 22.1-45.7-2.7-7.4-8.9-12.1-13-14.1-3.1-1.2-11.5-4.9-29 1.6l-51 18.7c-1.6.7-2.2 1.3-1.8 2.2.3.6 1 .8 1.5.4z"/><path d="M617 293.1l34.7 9.1c1.4.5 2.2.3 2.6-.5.1-.3-.2-.9-.9-.9-1.4-.5-4.5-1.8-6.4-2.5-4.2-1.6-4.2-5-3.6-9.4 1-6.2 3.9-17.5 7.6-31.4l15.6-59.3c1-3.6 3.9-2.7 3.9-2.7l20.7 5.5c3.3.9 12.2 2.5 17.8 12.2 5.6 9.9 3.5 19.7 2.2 24.5-3.5 13.2-17.2 20.4-31.2 16.8-3-.8-3.8-1-4.2.3-.2.5.7 1.3 1.3 1.4.7.3 2.3.7 3.1.8 20.3 5.6 39.1-4.3 44.4-24.8 2-7.7-.3-15.1-2.7-19-1.7-2.7-6.6-10.5-24.5-15.3l-52.6-13.8c-1.6-.5-2.4-.5-2.6.4-.2.5.4 1 .9 1 1.3.3 3.7 1.4 4.8 1.9 4.6 2.3 7.8 3.9 6 10.4-1.2 4.6-2.1 8.6-8 31.1l-6.7 25.5c-3.6 13.7-7.3 24.9-9 31.2-2.1 8.4-6.2 6.1-9.3 6-1.6-.2-3.2-.3-4.5-.8-.8 0-1.1.1-1.4.8-.3.6.4 1.1 2 1.5z"/><path d="M541.8 286.8c35.9.7 60-26.6 60.6-59.9.7-34.8-23.9-56.3-57.4-57.1-41.1-.7-59.3 33-59.9 57.4-.3 26.7 15.9 58.8 56.7 59.6zm2.1-111.9c23.4.4 44.8 20.2 44.2 55.9-.9 43.4-28.6 50.6-42.1 50.3-26.8-.4-47.2-23.2-46.6-57.8.7-32.7 19.5-48.8 44.5-48.4z"/><path d="M770.7 358.3c-.7.9-.2 1.4.9 2.5l23 23c1.2 1.2 2.1 1.6 2.9 1 .2-.3.2-1-.3-1.4-.9-1-3.2-3.5-4.5-5.8-2.1-3.8-.5-7.5 7.9-16.4l48.9-52c-.4 7.2-1.7 32.3-2.5 57.6-.9 23.3-.9 53.9-.9 56 0 11.3.2 13.8.9 14.5.9.7 1.6.4 8.5-6.6l61.7-61.9c6.2-6.3 9.1-8.3 13.1-5.6 1.7 1.1 4.8 4.3 5.4 4.7.7.8 1.5.9 2 .4.4-.8 0-1.5-1.3-2.6l-21.8-21.5c-1.3-1.4-2.2-2.2-3-1.4-.3.3-.6.8.2 1.5.9.8 2.6 2.7 4.2 5.1 2.5 3.8.9 7-5.8 14.1L858 418.2c.1-6.6 1.3-30.9 1.9-52.6 1.1-33.7 2.2-66.3 2.4-69.5 0-2.1.5-6.3-.3-7.2-.8-.8-2.3 0-6.4 4.3l-60.2 60.4c-9.6 9.7-13 12.2-16.5 10.5-2.2-1-5.8-4.6-6.6-5.4-.6-.7-1.3-.9-1.6-.4z"/><path d="M888.4 503.5c16.6 31.6 51.9 39.9 81.3 24.2 30.8-16.1 37.9-48.2 22.3-78-19.1-36.1-57.5-35.9-78.9-24.8-23.9 12.7-43.9 42.4-24.7 78.6zm98.6-52.3c11 20.9 4.1 49.1-27.6 65.7-38.3 20.1-58.1-.5-64.3-12.6-12.4-23.7-2.3-52.6 28.3-68.7 28.8-15.3 52.1-6.5 63.6 15.6z"/><path d="M957.2 573.1c-13.9 3.3-25.4 5.8-31.8 6.4-4.3.4-7.7.4-8.9-2.4-.5-1.1-1.6-4.6-2.1-6-.2-.9-.7-.9-1.2-.9-.7.1-.9.9-.6 2.5l7.5 32.6c.4 1.5 1.1 2.2 1.8 2.2.3-.3.7-.7.5-1.4-.3-1.3-.5-3.3-.5-5.4-.4-4.6 2.5-6 6.6-7.5 5.8-2.1 17.4-4.7 31.3-8l25.6-5.8c22.6-5.1 26.7-6.2 31.3-6.9 5.3-1 8-.3 9.6 3.5.7 1.5 1.4 4.6 1.6 5.5.2.7.7 1 1.2 1 1-.3 1-1 .7-2.6l-7.7-32.9c-.3-1.6-.7-2.2-1.5-2.2-.5.3-.8 1-.7 1.4.3 1.1 1 5.1.9 6.8 0 3.3-2.1 5.3-6.9 6.6-4.5 1.4-8.7 2.4-31.3 7.7l-25.4 5.8z"/><path d="M1038.9 641.8c-.5 0-1 .4-1 1.1 0 1.4-.3 3.9-.7 5.1-1.3 4.9-4 5.8-9 5.8-4.8 0-8.9-.4-32.1-2L970 650c-14.3-1-26-1.6-32.2-2.7-4.3-.9-7.6-2-7.9-4.9-.2-1.3-.2-6.2-.2-7.9.2-.9-.3-1-.8-1-.9-.3-1.2.7-1.4 2.3l-2.3 34.7c-.1 1.5.3 2.2 1 2.2.4.3.8 0 1-1 .1-1.2.5-3.7.9-5.6 1.1-4.7 3.5-6.8 7.9-6.3 7.7.4 94.8 6.4 94.8 6.4.9 0 1.4.5 1.7 1.4.3 1.4.4 5.4.2 10.1-1 15.7-13.4 33.9-32 32.7-14.9-1-22.5-12.6-22.5-12.6l-4.8-6.8s-17.5 10.6-26.1 16.4c-11.6 7.7-19.4 12.5-23.2 18.6-2.3 3.7-3.2 7.4-3.9 16l-.7 10.5c-.2 2.4.1 3.4 1 3.4.3 0 .9-.4.9-1.3 0-.8.2-2.8.8-5.6.9-3.7 2.9-10.1 11.9-17.5 9.9-7.9 23.7-17.3 40.1-28.5 11.4 14.3 22.1 19.7 33.2 20.3 10.2.8 17.8-5.2 20.8-8.9 6.3-7.3 8.3-26.6 8.9-35.9l2.4-34.2c.6-1.8.4-2.5-.6-2.5z"/><path d="M1017.5 811.4c-.5 1.3-1.5 3.6-2.3 4.7-2.5 4.2-5.3 4.5-10.1 3-4.6-1.3-8.5-2.8-30.3-11l-24.5-9.4c-13.4-5-24.3-9.2-30-12.1-3.8-1.9-6.6-3.8-6.1-6.9.2-1.3 1.4-5.4 1.9-6.4.3-.9 0-1.3-.4-1.5-.9-.3-1.4.3-2 1.9L886 847.4c-2 5.4-2.9 5.8.4 8.2 2.6 1.8 13.1 7.2 14.2 7.3 1.1.4 2.1.9 2.6 0 .2-.5-.3-1-1.6-2-5.4-3.2-7.6-6-7.7-10.1-.3-4.2 2.1-10.2 3.5-13.9l14.9-39.4 43.5 16.4c.5.2.8.8.5 1.5-.7 2.2-13 35.5-14.8 39.1-2.7 4.9-5.4 5.4-7.6 5.2-2.1-.2-2.7-.3-4-.8-.7-.2-1.3-.1-1.6.4-.4 1.1 1.2 1.4 2.3 2l19.8 7.7s1.5.4 2-.4c.2-.9-1-1.5-1.4-1.6-.7-.3-4.4-2.2-4.6-3.6-.5-2-.5-3.9.5-7.2.8-3.5 13.9-37.4 14.5-39 .3-1 .9-.8 1.8-.3l41.1 15.3c1 .4 1.3.8 1.1 1.3-.6 1.8-15.2 40-16.3 42.2-3.7 7.1-5.9 7.9-8.5 8.2-1.9 0-4.4-.8-5.3-1.1-1.1-.5-2-.5-2.4.3-.2.8.6 1.2 1.3 1.4 1.5.8 10.3 5.9 13.9 7.7.5.5 1.6 0 2-1.3 4.5-11.7 28.2-74.8 29.2-77.6.6-1.5.6-2.4-.2-2.8-.9-.1-1.6.4-1.6.9z"/></g><circle id="logo-intro-circle" cx="543.8" cy="675.8" r="451.2" fill="none" stroke="#fff" stroke-width="150" stroke-miterlimit="10"/><g id="logo-intro-logo"><path d="M724.9 941.8l-181.7-183c-5.6.3-11.3.1-17.1-.7-45.4-6.6-76.8-48.9-70.1-94.5 6.6-45.3 48.9-76.8 94.4-70 44.7 6.6 75.9 47.5 70.4 92.2L799.6 869c30.9-41.8 52.1-91.1 60.2-146.2C886 545.4 763.1 380.1 585.5 354c-91.3-13.4-179.5 12.9-247 65.4-31.9 26.2-51.2 49.7-51.2 49.7-36.5 44-61.7 98.4-70.6 159.1-26.2 177.8 96.6 342.8 274.1 369 85.7 12.7 168.4-9.4 234.1-55.4z"/><path d="M559.2 657.5c-11.2-11.4-29.5-11.6-40.9-.4-11.3 11.2-11.5 29.4-.4 40.8l225.4 230.2c59.3 60.7 238 191.9 238 191.9S840.4 944.5 785 887.5l-225.8-230z"/><path d="M94.7 270.8l120.8 121.7-2.7 18.1c2.9 3 27.6 21.9 57.1 45.1 0 0 19.2-24.8 53.6-52.5-25-28.1-45-51.4-48-54.4l-18.2 2.7-120.9-121.8c.5-11.5-3.7-23-12.2-31.9-16.7-17-43.8-17.2-60.7-.5-16.9 16.6-17.1 43.8-.5 60.6 8.7 8.9 20.2 13.1 31.7 12.9z"/></g></symbol><symbol viewBox="0 0 1000 1009" id="logo"><title>logo</title><g id="logo-texte"><path class="st0" d="M303.6 897.6c-5 .4-8.8 4.6-8.4 9.8.4 5 4.8 8.5 9.8 8.1 5.1-.4 8.8-4.5 8.4-9.5-.4-5.2-4.7-8.8-9.8-8.4z"/><path class="st0" d="M745.6 866.5c-5.1.4-8.8 4.8-8.4 9.6.4 4.9 4.6 8.9 9.8 8.5 4.9-.4 8.6-4.9 8.3-9.9-.4-4.8-4.8-8.5-9.7-8.2z"/><path class="st0" d="M100.9 290.8c.4 4.9 4.8 8.8 9.6 8.4 5.1-.4 8.8-4.9 8.4-9.8-.4-5-4.8-8.6-9.8-8.3-4.8.5-8.6 4.7-8.2 9.7z"/><path class="st0" d="M716.4 956.3c-1.1.5-3.6 1.3-4.9 1.4-4.9 1.1-8.4 2.1-11-4.3-1.9-4.5-4-8-13.4-29.1l-10.8-24.1c-5.6-13-9.9-24-12.4-30-3.4-7.9 1.1-8.8 3.6-10.6 1.4-.6 2.6-1.8 3.8-2 .9-.5 1-1.1.8-1.3-.4-1.1-1.1-1-2.6-.4l-32.9 14.8c-1.4.5-2 1.1-1.6 1.9.3.4.6.8 1.5.5 1.1-.8 4.3-1.8 6.4-2.4 4.4-1.1 6.5 1.5 8.6 5.1 3.3 5.5 8 16.4 13.6 29.1l24.9 56c1.5 3.5-1.3 4.8-1.3 4.8l-19.5 8.6c-3.1 1.4-11.3 5.5-21.6 1.6-10.5-4.4-15-13.3-16.9-17.8-5.6-12.5.4-26.8 13.8-32.8 2.8-1 3.6-1.8 3.1-2.6-.3-.9-1.3-.8-1.9-.4-.8 0-2.3.8-2.9 1.3-19.4 8.4-27.8 27.8-19.3 47 3.1 7.3 9.6 11.5 13.9 13.3 3.1 1 11.9 4.1 28.9-3.5l49.8-21.9c1.5-.8 2.1-1.5 1.6-2.3-.1-.2-.8-.2-1.3.1z"/><path class="st0" d="M449.5 892.3l-35.4-6.5c-1.5-.4-2.3-.1-2.5.8 0 .4.3.9 1 .8 1.4.5 4.6 1.4 6.6 2 4.3 1.4 4.6 4.8 4.3 9.1-.5 6.3-2.6 17.8-5.3 31.9l-11.1 60.3c-.8 3.6-3.6 3-3.6 3l-21.1-3.9c-3.4-.6-12.4-1.6-18.8-10.9-6.4-9.5-5-19.4-4.1-24.3 2.5-13.5 15.6-21.6 29.9-19.1 3 .5 3.9.8 4.1-.6.1-.5-.8-1.3-1.4-1.4-.8-.3-2.4-.5-3.1-.5-20.8-4-38.6 7.3-42.5 28.1-1.4 7.8 1.4 15 4.1 18.8 2 2.6 7.4 10 25.6 13.4l53.5 9.8c1.6.4 2.5.4 2.6-.6.1-.5-.5-1-1-.9-1.4-.2-3.9-1.1-4.9-1.5-4.8-2-8-3.4-6.8-9.9.9-4.6 1.4-8.8 5.6-31.6l4.8-25.9c2.6-13.9 5.4-25.4 6.6-31.8 1.5-8.5 5.8-6.6 8.9-6.8 1.6.1 3.3.1 4.6.4.9 0 1.1-.3 1.3-.9.4-.7-.3-1-1.9-1.3z"/><path class="st0" d="M527.5 891.4c-35.9 1.5-58.3 30.1-56.9 63.5 1.4 34.8 27.3 54.8 60.8 53.5 41.1-1.9 57.1-36.5 56.4-60.9-1.4-26.6-19.5-57.7-60.3-56.1zm4.7 111.9c-23.4 1-46-17.5-47.5-53.1-1.6-43.4 25.5-52.3 39-52.8 26.9-1.1 48.5 20.3 50 55 1.4 32.7-16.5 49.8-41.5 50.9z"/><path class="st0" d="M293 837.9l-24.8-21c-1.3-1.1-2.3-1.5-3-.8-.1.4-.1 1 .5 1.4 1 .9 3.5 3.3 5 5.4 2.4 3.6 1.1 7.5-6.5 17l-44.4 55.9c-.1-7.3-1-32.3-2.3-57.6-1-23.3-3.6-53.8-3.8-55.9-.9-11.3-1.3-13.8-2.1-14.4-.9-.6-1.6-.3-7.9 7.3L147.3 842c-5.8 6.9-8.4 9-12.6 6.6-1.8-1-5.1-3.9-5.8-4.3-.8-.8-1.5-.8-2-.3-.4.8.1 1.5 1.5 2.5l23.5 19.6c1.4 1.4 2.4 2 3.1 1.1.3-.4.5-.8-.3-1.5-1-.8-2.8-2.5-4.6-4.8-2.8-3.6-1.5-6.9 4.6-14.5l47.5-58.8c.4 6.5 1.3 31 2.5 52.6 1.6 33.6 3.3 66.3 3.4 69.5.1 2.1 0 6.4.9 7.1.9.8 2.3-.3 6.1-4.8l55-65.1c8.8-10.5 12-13.3 15.5-11.9 2.3.8 6.1 4.1 7 4.8.6.6 1.3.6 1.5.3.5-.7 0-1.2-1.1-2.2z"/><path class="st0" d="M167.7 704.6c-18.9-30.3-54.8-35.9-83-18-29.5 18.4-34.1 51-16.4 79.4 21.8 34.5 60 31.5 80.5 18.9 22.9-14.5 40.6-45.7 18.9-80.3zm-94.6 59.5c-12.5-20-7.8-48.6 22.6-67.6 36.6-23 58-3.9 65.1 7.8 14.1 22.8 6.3 52.3-23.1 70.7-27.6 17.4-51.3 10.3-64.6-10.9z"/><path class="st0" d="M88.9 641.8c13.6-4.5 24.8-8 31.1-9.3 4.3-.8 7.6-1.1 9 1.6.6 1 2 4.4 2.6 5.9.3.9.8.8 1.3.8.8-.1.8-1 .4-2.5l-10.4-31.8c-.5-1.5-1.3-2.1-2-2-.3.4-.6.8-.4 1.5.4 1.3.8 3.3 1 5.3.9 4.5-1.9 6.3-5.9 8.1-5.6 2.6-16.9 6.3-30.5 10.8l-25 8c-22 7.1-26 8.6-30.6 9.6-5.3 1.5-7.9 1-9.9-2.6-.8-1.5-1.9-4.5-2-5.3-.3-.6-.8-.9-1.3-.9-1 .4-.9 1.1-.4 2.6l10.5 32.1c.4 1.6.9 2.1 1.8 2 .5-.4.8-1 .6-1.5-.4-1.1-1.5-5-1.5-6.6-.3-3.3 1.6-5.4 6.3-7.1 4.4-1.9 8.5-3.1 30.5-10.4l24.8-8.3z"/><path class="st0" d="M3.2 587.2c.5 0 .9-.5.9-1.3-.1-1.4-.1-4 .1-5.1.8-5 3.3-6.3 8.3-6.8 4.8-.5 8.9-.6 32.1-1.6l26.1-1.3c14.4-.6 26-1.3 32.3-.9 4.4.4 7.8 1.1 8.4 4 .3 1.3.9 6.1 1 7.8 0 .9.5 1 .9.9.9.3 1.1-.8 1.1-2.4l-1.6-34.8c-.1-1.5-.6-2.1-1.3-2-.4-.3-.8.1-.9 1.1 0 1.3-.1 3.8-.3 5.6-.5 4.8-2.8 7.1-7.1 7.3-7.8.5-95 4.4-95 4.4-.9.1-1.5-.4-1.9-1.3-.5-1.4-1-5.3-1.3-10-.8-15.8 9.5-35.3 28.1-36.1 15-.8 23.8 10 23.8 10l5.5 6.3s16.1-12.5 24-19.3c10.6-8.9 17.9-14.6 20.9-21.1 1.9-4 2.3-7.8 2-16.3l-.5-10.5c-.1-2.4-.5-3.4-1.4-3.3-.4 0-.9.5-.8 1.4.1.8.1 2.9-.1 5.6-.5 3.8-1.8 10.4-9.9 18.8-9 9-21.6 19.9-36.6 32.9-13-13-24.3-17-35.4-16.5-10.1.5-17 7.3-19.6 11.2-5.4 8-5.3 27.4-4.8 36.6l1.5 34.3c.4 1.8.7 2.5 1.5 2.4z"/><path class="st0" d="M6.4 414.9c.4-1.4 1.1-3.8 1.9-4.9 2.1-4.4 4.9-4.9 9.8-3.8 4.6.9 8.8 2.1 31.1 8.4l25.3 7.3c13.8 3.9 25 7.1 31 9.5 3.9 1.5 6.9 3.3 6.6 6.4 0 1.4-1 5.5-1.3 6.6-.3.9.1 1.3.6 1.5 1 .3 1.4-.5 1.8-2l21.4-76c1.5-5.5 2.4-6-1.1-8.1-2.8-1.5-13.8-6.1-14.8-6.1-1.1-.4-2.1-.8-2.5.3-.1.5.4 1 1.8 1.9 5.6 2.8 8.1 5.4 8.5 9.4.6 4.1-1.3 10.4-2.3 14.1l-11.5 40.5-44.8-12.6c-.5-.1-.9-.8-.6-1.5.5-2.3 10-36.5 11.4-40.3 2.3-5.1 5-5.8 7.1-5.9 2.1 0 2.8.1 4.1.4.8.1 1.4 0 1.6-.6.4-1.1-1.4-1.4-2.5-1.8l-20.4-6s-1.6-.3-2 .6c-.1.9 1.1 1.5 1.5 1.5.6.3 4.5 1.8 4.9 3.3.8 1.9.9 3.9.1 7.3-.5 3.5-10.8 38.5-11.1 40.1-.1 1-.9.9-1.8.5L18 393c-1-.4-1.4-.6-1.3-1.3.5-1.8 11.8-41.1 12.8-43.5 3-7.4 5.1-8.4 7.8-8.9 1.9-.1 4.5.4 5.4.6 1.3.5 2 .4 2.4-.5.1-.8-.8-1.1-1.4-1.3-1.5-.6-10.8-5-14.5-6.5-.6-.5-1.6.1-1.9 1.5-3.5 12-21.6 76.9-22.5 79.9-.5 1.6-.4 2.5.4 2.9.5 0 1-.5 1.2-1z"/><path class="st0" d="M722.6 130c5 0 9.1-3.9 9.1-9.1 0-5-4.1-8.9-9.1-8.9-5.1 0-9.1 3.9-9.1 8.9 0 5.1 4 9.1 9.1 9.1z"/><path class="st0" d="M274.1 131.3c5.1 0 9.1-4 9.1-9 0-4.9-4-9.1-9.1-9.1-4.9 0-8.9 4.3-8.9 9.1s4 9 8.9 9z"/><path class="st0" d="M877.3 759.1c0-4.9-4-9.1-8.9-9.1-5.1 0-9.1 4.1-9.1 9.1s4 9 9.1 9c4.8 0 8.9-4 8.9-9z"/><path class="st0" d="M311.7 42c1.3-.5 3.6-1 4.9-1.1 5-.9 8.5-1.5 10.8 4.9 1.6 4.6 3.5 8.3 11.5 30l9.3 24.8c4.8 13.4 8.3 24.6 10.5 30.8 2.9 8.1-1.6 8.6-4.4 10.4-1.5.5-2.8 1.5-3.9 1.8-.9.4-1.1 1.1-.9 1.3.4 1.1 1.1 1.1 2.6.5l33.8-12.6c1.4-.4 2.1-1 1.8-1.8-.3-.4-.6-.8-1.5-.6-1.3.6-4.4 1.4-6.5 2-4.4.9-6.4-2-8.3-5.6-2.9-5.8-7-16.9-11.8-30L338.2 39c-1.4-3.6 1.6-4.8 1.6-4.8l20.1-7.4c3.1-1.3 11.6-4.8 21.8-.3 10.3 5 14.1 14.3 15.8 18.9 4.9 12.8-2.1 26.6-15.8 31.9-2.9.9-3.8 1.5-3.3 2.4.1.9 1.1.9 1.9.4.8 0 2.3-.5 2.9-1.1 19.9-7.1 29.5-25.9 22.1-45.8-2.6-7.5-8.9-12.1-13-14.1-3.1-1.3-11.5-4.9-29 1.6l-51 18.8c-1.6.6-2.1 1.3-1.8 2.1 0 .6.6.6 1.2.4z"/><path class="st0" d="M576.8 123.9l34.8 9.1c1.4.5 2.3.4 2.6-.5 0-.4-.1-.9-.9-.9-1.4-.5-4.5-1.8-6.4-2.5-4.1-1.6-4.3-5-3.5-9.4 1-6.3 3.9-17.5 7.6-31.4L626.6 29c1-3.6 3.9-2.8 3.9-2.8l20.8 5.5c3.3.9 12.3 2.5 17.9 12.3 5.6 10 3.5 19.8 2.3 24.5-3.5 13.3-17.1 20.5-31.3 16.9-3-.8-3.8-1-4.3.4-.3.5.8 1.3 1.3 1.4.8.4 2.3.6 3.1.8 20.4 5.6 39.1-4.3 44.5-24.9 2-7.6-.3-15.1-2.6-19-1.8-2.8-6.6-10.5-24.5-15.3L605.1 15c-1.6-.5-2.4-.5-2.6.4-.1.5.4 1 .9 1 1.4.4 3.8 1.4 4.8 1.9 4.6 2.3 7.8 3.9 6 10.4-1.3 4.6-2.1 8.6-8 31L598.9 85c-3.6 13.6-7.4 24.9-9 31.1-2.1 8.4-6.1 6.1-9.4 6-1.6-.3-3.3-.4-4.5-.8-.9 0-1.1.1-1.4.8 0 .9.6 1.4 2.2 1.8z"/><path class="st0" d="M501.5 117.5c35.9.6 60-26.6 60.6-59.9.8-34.8-24-56.4-57.4-57.1-41.1-.6-59.3 33-59.9 57.4-.3 26.7 16 58.9 56.7 59.6zm2.2-111.9c23.3.4 44.8 20.3 44.1 55.9-.9 43.4-28.6 50.6-42.1 50.3-26.9-.4-47.3-23.3-46.6-57.9.7-32.7 19.5-48.7 44.6-48.3z"/><path class="st0" d="M730.6 189.2c-.8.9-.1 1.4.9 2.5l23 23c1.3 1.3 2.1 1.6 2.9 1 .1-.4.1-1-.4-1.4-.9-1-3.1-3.5-4.5-5.8-2.1-3.9-.5-7.5 7.9-16.4l48.9-52c-.4 7.3-1.8 32.3-2.5 57.6-.9 23.3-.9 53.9-.9 56 0 11.3.1 13.8.9 14.5.9.6 1.6.4 8.5-6.6l61.6-61.9c6.3-6.4 9.1-8.3 13.1-5.6 1.8 1.1 4.9 4.3 5.4 4.8.8.8 1.5.9 2 .4.4-.8 0-1.5-1.3-2.6L874.7 175c-1.3-1.4-2.1-2.3-3-1.4-.3.4-.6.8.1 1.5.9.8 2.6 2.8 4.1 5.1 2.5 3.9.9 7-5.8 14.1L818 249.1c.1-6.6 1.3-31 1.9-52.6 1.1-33.6 2.3-66.3 2.4-69.5 0-2.1.5-6.4-.3-7.3-.9-.8-2.3 0-6.5 4.3l-60.3 60.4c-9.6 9.8-13 12.3-16.5 10.5-2.1-1-5.8-4.6-6.5-5.4-.6-.7-1.2-.8-1.6-.3z"/><path class="st0" d="M848.4 334.4c16.6 31.6 52 39.9 81.4 24.1 30.9-16.1 37.9-48.3 22.3-78-19.1-36.1-57.5-35.9-78.9-24.9-23.9 12.9-44.1 42.6-24.8 78.8zm98.7-52.3c11 20.9 4.1 49.1-27.6 65.8-38.3 20.1-58.1-.5-64.4-12.6-12.4-23.8-2.3-52.6 28.4-68.6 28.8-15.5 51.9-6.7 63.6 15.4z"/><path class="st0" d="M917.3 404.1c-14 3.3-25.4 5.8-31.8 6.5-4.3.4-7.8.4-8.9-2.4-.5-1.1-1.6-4.6-2.1-6-.1-.9-.6-.9-1.3-.9-.8.1-.9.9-.6 2.5l7.5 32.6c.4 1.5 1.1 2.1 1.8 2.1.3-.4.6-.6.5-1.4-.3-1.3-.5-3.3-.5-5.4-.4-4.6 2.5-6 6.6-7.5 5.8-2.1 17.4-4.8 31.4-8l25.6-5.8c22.6-5.1 26.6-6.3 31.4-6.9 5.3-1 8-.4 9.6 3.5.6 1.5 1.4 4.6 1.6 5.5.3.6.8 1 1.3 1 1-.4 1-1 .6-2.6l-7.6-32.9c-.3-1.6-.8-2.3-1.5-2.3-.5.4-.9 1-.8 1.4.4 1.1 1 5.1.9 6.8 0 3.3-2.1 5.3-6.9 6.6-4.5 1.4-8.8 2.4-31.4 7.6l-25.4 6z"/><path class="st0" d="M999 472.7c-.5 0-1 .5-1 1.1 0 1.4-.4 4-.8 5.1-1.3 4.9-4 5.8-9 5.8-4.8 0-8.9-.5-32.1-2l-26.1-1.8c-14.4-1-26-1.6-32.3-2.8-4.3-.9-7.6-2-7.9-4.9-.1-1.3-.1-6.3-.1-7.9.1-.9-.4-1-.8-1-.9-.4-1.3.6-1.4 2.3l-2.3 34.6c0 1.5.4 2.1 1 2.1.4.4.9 0 1-1 .1-1.3.5-3.8.9-5.6 1.1-4.8 3.5-6.8 7.9-6.4 7.8.4 94.9 6.5 94.9 6.5.9 0 1.4.5 1.8 1.4.4 1.4.5 5.4.1 10.1-1 15.8-13.4 33.9-32 32.8-14.9-1-22.5-12.6-22.5-12.6l-4.8-6.8s-17.5 10.6-26.1 16.4c-11.6 7.6-19.4 12.5-23.3 18.6-2.3 3.8-3.1 7.4-3.9 16l-.6 10.5c-.1 2.4.1 3.4 1 3.4.4 0 .9-.4.9-1.4 0-.8.1-2.9.9-5.6.9-3.8 2.9-10.1 11.9-17.5 9.9-7.9 23.8-17.3 40.1-28.5 11.4 14.4 22.1 19.6 33.3 20.4 10.3.8 17.9-5.3 20.9-8.9 6.3-7.4 8.3-26.6 8.9-35.9l2.4-34.3c.3-1.5.1-2.2-.9-2.2z"/><path class="st0" d="M977.6 642.5c-.5 1.3-1.5 3.6-2.3 4.8-2.5 4.1-5.3 4.5-10 3-4.6-1.4-8.5-2.9-30.3-11l-24.5-9.4c-13.4-5-24.4-9.1-30-12.1-3.8-1.9-6.6-3.9-6.1-6.9.1-1.3 1.4-5.4 1.9-6.5.3-.9 0-1.4-.4-1.5-.9-.4-1.4.4-2 1.9l-27.8 73.9c-2 5.4-2.9 5.8.4 8.3 2.6 1.8 13.1 7.3 14.1 7.4 1.1.5 2.1.9 2.6 0 .1-.5-.4-1-1.6-2-5.4-3.1-7.6-6-7.8-10.1-.3-4.1 2.1-10.1 3.5-13.9l14.9-39.4 43.5 16.4c.5.3.9.8.5 1.5-.8 2.1-13 35.5-14.9 39.1-2.8 4.9-5.4 5.4-7.6 5.3-2.1-.3-2.8-.4-4-.8-.8-.3-1.3-.1-1.6.4-.4 1.1 1.3 1.4 2.3 2l19.8 7.6s1.5.4 2-.5c.3-.9-1-1.5-1.4-1.6-.6-.4-4.4-2.3-4.6-3.6-.5-2-.5-3.9.5-7.3.9-3.5 14-37.4 14.5-39 .3-1 .9-.8 1.8-.4l41.1 15.3c1 .4 1.3.8 1.1 1.3-.6 1.8-15.3 40-16.4 42.3-3.6 7.1-5.9 7.9-8.5 8.3-1.9 0-4.4-.8-5.3-1.1-1.1-.5-2-.5-2.4.4-.1.8.6 1.3 1.3 1.4 1.5.8 10.4 5.9 13.9 7.6.5.5 1.6 0 2-1.4 4.5-11.8 28.1-74.8 29.3-77.7.6-1.5.6-2.4-.1-2.9-.7-.1-1.3.5-1.4.9z"/></g><g id="logo-logo"><path d="M685 773.8l-181.7-183c-5.6.3-11.3.1-17.1-.8-45.4-6.6-76.8-48.9-70.2-94.5 6.6-45.3 48.9-76.8 94.4-70 44.6 6.6 75.9 47.5 70.4 92.2L759.6 701c30.9-41.8 52.1-91.2 60.1-146.2C846 377.4 723.1 212.1 545.4 186c-91.3-13.4-179.4 12.9-247 65.4-31.9 26.3-51.1 49.6-51.1 49.6-36.5 44-61.6 98.4-70.7 159.1-26.3 177.8 96.7 342.7 274.1 369 85.8 12.9 168.6-9.2 234.3-55.3z"/><path d="M519.4 489.5c-11.3-11.4-29.5-11.6-40.9-.4-11.3 11.3-11.5 29.4-.4 40.8l225.5 230.2c59.3 60.6 238 191.9 238 191.9S800.5 776.6 745.1 719.6L519.4 489.5z"/><path d="M54.9 102.9l120.8 121.7-2.8 18.1c2.9 3 27.6 21.9 57.1 45.1 0 0 19.3-24.8 53.6-52.5-25-28.1-45-51.4-48-54.4l-18.3 2.8L96.5 61.9c.5-11.5-3.8-23-12.3-31.9-16.8-17-43.8-17.3-60.6-.5-16.9 16.6-17.1 43.8-.5 60.6 8.8 8.8 20.3 13 31.8 12.8z"/></g></symbol></svg>