<svg xmlns="http://www.w3.org/2000/svg"><symbol viewBox="0 0 1000 766" id="arrow-left"><title>arrow-left</title><path d="M297.1 766.5l48.3-37.1-245.2-319.2H1000v-60.9H101.3L345.2 38.8 297.3 1.1 0 379.6z"/></symbol><symbol viewBox="0 0 1000 766" id="arrow-right"><title>arrow-right</title> <polygon points="702.8,1.1 654.5,38.3 899.7,357.5 0,357.5 0,418.4 898.6,418.4 654.7,728.9 702.6,766.5 1000,388 "/> </symbol><symbol viewBox="0 0 199 1000" id="j"><title>j</title> <path d="M92.4,118.2h106.1V0H92.4V118.2z M57.4,1000c39.4,0,73.3-6.6,99.6-26.3c24.1-19.7,39.4-52.5,39.4-109.4V226.5H94.6v632.4
	c0,41.6-19.7,56.9-59.1,58c-9.8,0-20.8-1.1-31.7-3.3H0.5v81C15.8,996.7,35.5,1000,57.4,1000"/> </symbol><symbol viewBox="0 0 506 1000" id="k"><title>k</title> <path d="M386.5,844h119.3L255.2,467.7l224.3-211.2H352.6L97.6,507.1c2.2-28.4,4.4-70,4.4-90.8V30H0.3v814H102V613.2l83.2-78.8
	L386.5,844z"/> </symbol><symbol viewBox="0 0 668 1000" id="ln"><title>ln</title> <path d="M280.4,257.3H179.7v587.5h101.8V487.1c0-94.1,65.6-158.6,156.5-158.6c79.9,0,129.1,42.7,129.1,118.2v398.2h100.7V434.5
	c0-122.5-75.5-191.5-198-191.5c-85.3,0-143.3,38.3-186,97.4h-3.3V257.3z M0.3,844.8h101.8v-814H0.3V844.8z"/> </symbol></svg>